# xmcd
# 
# Track frame offsets:
#     183
#     17425
#     33050
#     47923
#     65088
#     76965
#     92088
#     107950
#     119815
#     133470
#     149018
#     165090
# 
# Disc length: 2459
# 
# Revision: 4
# Processed by: cddbd v1.5.2PL0 Copyright (c) Steve Scherf et al.
# Submitted via: fre:ac v1.0.31
# 
DISCID=a809990c
DTITLE=Truck Stop - Truck Stop
DYEAR=1980
DGENRE=Country
TTITLE0=Old Texas Town, die Westernstadt
TTITLE1=Du bist der absolute Wahnsinn
TTITLE2=Träume von Jamaica
TTITLE3=Taufschein, Trauschein
TTITLE4=Freizeit-Cowboy
TTITLE5=Ich hab' so das Gefühl
TTITLE6=Hier spricht der Truck
TTITLE7=Ich pfeife auf die Autobahn
TTITLE8=Jede Menge Hits
TTITLE9=Immer nur Sekt und Kaviar
TTITLE10=Cornflakes, Hamburg - Amsterdam
TTITLE11=Laß mich geh'n
EXTD=
EXTT0=
EXTT1=
EXTT2=
EXTT3=
EXTT4=
EXTT5=
EXTT6=
EXTT7=
EXTT8=
EXTT9=
EXTT10=
EXTT11=
PLAYORDER=
